<svg xmlns="http://www.w3.org/2000/svg" viewBox="0 0 200 200" fill="none">
  <!-- Gear outer -->
  <path d="M100 20 L115 35 L135 28 L140 50 L162 50 L158 72 L178 82 L168 100 L178 118 L158 128 L162 150 L140 150 L135 172 L115 165 L100 180 L85 165 L65 172 L60 150 L38 150 L42 128 L22 118 L32 100 L22 82 L42 72 L38 50 L60 50 L65 28 L85 35 Z" fill="#F5B731"/>
  <!-- Bull head silhouette -->
  <path d="M65 95 C65 75, 80 65, 100 65 C120 65, 135 75, 135 95 L135 115 C135 135, 120 145, 100 145 C80 145, 65 135, 65 115 Z" fill="#F5B731"/>
  <!-- Left horn -->
  <path d="M72 85 L55 60 L65 58 L78 78 Z" fill="#F5B731"/>
  <!-- Right horn -->
  <path d="M128 85 L145 60 L135 58 L122 78 Z" fill="#F5B731"/>
  <!-- Nose ring -->
  <circle cx="100" cy="125" r="12" stroke="#1a6e3a" stroke-width="4" fill="none"/>
  <!-- Left eye -->
  <circle cx="85" cy="95" r="5" fill="#1a6e3a"/>
  <!-- Right eye -->
  <circle cx="115" cy="95" r="5" fill="#1a6e3a"/>
</svg>
